<svg width="293" height="39" viewBox="0 0 293 39" fill="none" xmlns="http://www.w3.org/2000/svg" aria-hidden="true" xmlns:xlink="http://www.w3.org/1999/xlink">
    <path d="M0.0976562 28.3101L1.54723 33.6912L35.8312 38.1587C35.8312 38.1587 41.2403 29.6013 38.886 20.8469C36.5284 12.0926 27.5456 7.37643 27.5456 7.37643L0.0976562 28.3101ZM27.7337 31.1539L9.26534 28.7458L24.0497 17.4672C23.7773 19.6945 23.8065 22.1833 24.481 24.685C25.1556 27.1867 26.3781 29.3592 27.7337 31.1507V31.1539Z" fill="#EF2A24"></path>
    <path d="M43.1572 17.5867L44.2209 21.5442L57.9222 19.7559L55.918 12.3186L43.1572 17.5867Z" fill="#EF2A24"></path>
    <path d="M44.4178 26.7802L42.9033 30.5892L51.0884 35.5119L53.7703 28.7719L44.4178 26.7802Z" fill="#EF2A24"></path>
    <path d="M40.6951 12.9546L37.4717 10.4109L43.5716 0.207214L49.2791 4.71029L40.6951 12.9546Z" fill="#EF2A24"></path>
    <path d="M69.3528 23.5068C69.3528 16.6763 74.3404 11.9925 80.7095 11.9925C87.0786 11.9925 90.9668 15.5142 91.463 21.1116L86.2289 21.2859C85.9468 18.5034 84.0367 16.7086 80.8165 16.7086C77.1034 16.7086 74.8723 19.3846 74.8723 23.5035C74.8723 27.6225 77.1715 30.5115 81.2381 30.5115C83.68 30.5115 85.7652 29.2785 86.5435 27.0963H81.2024V23.2227H91.6024V34.595H86.897V31.8124C85.6938 34.0301 83.1482 35.0178 80.1744 35.0178C73.9837 35.0178 69.3496 30.3695 69.3496 23.5035L69.3528 23.5068Z" fill="#191919"></path>
    <path d="M99.8495 12.4154V34.5983H94.7549V12.4154H99.8495Z" fill="#191919"></path>
    <path d="M110.638 35.0211C105.615 35.0211 102.184 31.6414 102.184 26.78C102.184 21.9186 105.615 18.5389 110.638 18.5389C115.661 18.5389 119.128 21.9541 119.128 26.78C119.128 31.6059 115.661 35.0211 110.638 35.0211ZM110.638 31.183C112.866 31.183 113.962 29.3882 113.962 26.78C113.962 24.1718 112.866 22.377 110.638 22.377C108.41 22.377 107.35 24.1718 107.35 26.78C107.35 29.3882 108.374 31.183 110.638 31.183Z" fill="#191919"></path>
    <path d="M125.387 34.5983H121.46V12.4154H126.555V21.7831C127.333 19.9173 129.136 18.5422 131.86 18.5422C136.458 18.5422 138.865 22.206 138.865 26.7833C138.865 31.3606 136.458 35.0244 131.753 35.0244C129.136 35.0244 127.154 33.688 126.305 31.7835L125.384 34.6015L125.387 34.5983ZM126.555 26.9576C126.555 29.4916 128.004 31.0765 130.128 31.0765C132.534 31.0765 133.702 29.3495 133.702 26.78C133.702 24.2105 132.534 22.5191 130.128 22.5191C128.007 22.5191 126.555 24.104 126.555 26.6025V26.9544V26.9576Z" fill="#191919"></path>
    <path d="M155.456 30.3371C155.456 31.1474 155.809 31.4992 156.445 31.4992C156.905 31.4992 157.294 31.4282 157.755 31.2184V33.9299C156.976 34.4948 155.984 34.95 154.431 34.95C152.556 34.95 151.175 33.9654 150.714 32.2029C149.829 33.9977 147.883 34.95 145.445 34.95C142.296 34.95 140.314 33.365 140.314 30.689C140.314 27.6966 142.578 26.428 146.045 25.7598L150.432 24.9851V24.7043C150.432 23.2258 149.69 22.3446 148.133 22.3446C146.577 22.3446 145.905 23.2613 145.623 24.5622L140.882 24.2104C141.411 20.8662 143.924 18.542 148.415 18.542C152.517 18.542 155.456 20.3723 155.456 24.6332V30.3371ZM150.436 27.6611L147.854 28.1905C146.262 28.5069 145.273 28.8942 145.273 30.1273C145.273 31.0441 145.98 31.6057 147.076 31.6057C148.95 31.6057 150.436 30.1983 150.436 27.9775V27.6611Z" fill="#191919"></path>
    <path d="M164.549 12.4154V34.5983H159.454V12.4154H164.549Z" fill="#191919"></path>
    <path d="M194.474 27.3094H194.616L198.365 12.4154H203.567L197.73 34.5983H191.964L188.037 19.7753H187.894L183.967 34.5983H178.272L172.471 12.4154H177.812L181.596 27.3094H181.739L185.666 12.4154H190.514L194.477 27.3094H194.474Z" fill="#191919"></path>
    <path d="M205.159 12.4154H210.361V17.0637H205.159V12.4154ZM210.286 18.965V34.5983H205.192V18.965H210.286Z" fill="#191919"></path>
    <path d="M214.071 22.5193H211.879V19.4205L213.011 19.2429C214.567 18.9621 215.028 18.1519 215.417 16.7089L215.949 14.6301H219.098V18.9621H223.271V22.5193H219.098V29.0335C219.098 30.3731 219.733 30.9348 220.936 30.9348C221.715 30.9348 222.529 30.7249 223.482 30.3021V33.6463C222.315 34.5275 220.969 35.0182 218.919 35.0182C216.374 35.0182 214.071 33.9271 214.071 30.4054V22.5193Z" fill="#191919"></path>
    <path d="M230.768 34.5981H225.674V18.9649H230.768V21.3956C231.618 19.6718 233.528 18.542 235.899 18.542C240.144 18.542 241.558 21.4633 241.558 24.8108V34.6013H236.463V26.0439C236.463 23.7907 235.72 22.5576 233.846 22.5576C231.793 22.5576 230.768 24.1781 230.768 26.6411V34.5981Z" fill="#191919"></path>
    <path d="M259.954 29.4559C259.14 33.0132 256.345 35.021 252.242 35.021C247.255 35.021 243.717 31.9931 243.717 27.0284C243.717 22.0638 247.326 18.542 252.135 18.542C257.337 18.542 260.058 22.0993 260.058 26.3602V27.9097H248.737C248.88 29.9885 250.436 31.1861 252.414 31.1861C254.185 31.1861 255.281 30.5179 255.845 29.075L259.948 29.4623L259.954 29.4559ZM255.142 25.1949C255.035 23.6455 254.045 22.2381 252.1 22.2381C250.047 22.2381 249.094 23.5422 248.811 25.1949H255.145H255.142Z" fill="#191919"></path>
    <path d="M265.824 29.3881C266.035 30.902 267.238 31.7478 269.148 31.7478C270.53 31.7478 271.447 31.2539 271.447 30.4082C271.447 29.6334 270.951 29.2106 269.677 29.0007L267.271 28.6134C263.661 28.0485 261.719 26.8186 261.719 23.7197C261.719 20.6208 264.371 18.542 268.581 18.542C273.036 18.542 275.692 20.5143 276.01 23.8585L271.801 24.0006C271.554 22.6287 270.458 21.8539 268.513 21.8539C267.238 21.8539 266.46 22.3833 266.46 23.2258C266.46 23.8585 266.956 24.2459 267.734 24.3524L270.776 24.8818C274.207 25.4112 276.189 26.9251 276.189 29.9175C276.189 33.1939 273.393 35.0242 269.113 35.0242C264.832 35.0242 261.647 33.3004 261.365 29.4946L265.821 29.3881H265.824Z" fill="#191919"></path>
    <path d="M281.814 29.3881C282.025 30.902 283.228 31.7478 285.138 31.7478C286.52 31.7478 287.438 31.2539 287.438 30.4082C287.438 29.6334 286.941 29.2106 285.667 29.0007L283.261 28.6134C279.651 28.0485 277.709 26.8186 277.709 23.7197C277.709 20.6208 280.362 18.542 284.571 18.542C289.027 18.542 291.683 20.5143 292 23.8585L287.791 24.0006C287.545 22.6287 286.449 21.8539 284.503 21.8539C283.228 21.8539 282.45 22.3833 282.45 23.2258C282.45 23.8585 282.946 24.2459 283.725 24.3524L286.766 24.8818C290.197 25.4112 292.179 26.9251 292.179 29.9175C292.179 33.1939 289.383 35.0242 285.103 35.0242C280.822 35.0242 277.638 33.3004 277.355 29.4946L281.811 29.3881H281.814Z" fill="#191919"></path>
</svg>